<svg width="20" height="20" viewBox="0 0 20 20" fill="none" xmlns="http://www.w3.org/2000/svg">
<path d="M7.50036 13.333L6.81286 16.0622C6.7712 16.2427 6.68092 16.3886 6.54203 16.4997C6.40314 16.6108 6.23647 16.6663 6.04203 16.6663C5.77814 16.6663 5.56286 16.5622 5.3962 16.3538C5.22953 16.1455 5.18092 15.9163 5.25036 15.6663L5.8337 13.333H3.56286C3.28509 13.333 3.06286 13.2255 2.8962 13.0105C2.72953 12.7955 2.68092 12.5558 2.75036 12.2913C2.79203 12.0969 2.88925 11.9441 3.04203 11.833C3.19481 11.7219 3.36842 11.6663 3.56286 11.6663H6.25036L7.0837 8.33301H4.81286C4.53509 8.33301 4.31286 8.22551 4.1462 8.01051C3.97953 7.79551 3.93092 7.55579 4.00036 7.29134C4.04203 7.0969 4.13925 6.94412 4.29203 6.83301C4.44481 6.7219 4.61842 6.66634 4.81286 6.66634H7.50036L8.18786 3.93717C8.22953 3.75662 8.31981 3.61079 8.4587 3.49967C8.59759 3.38856 8.76425 3.33301 8.9587 3.33301C9.22259 3.33301 9.43786 3.43717 9.60453 3.64551C9.7712 3.85384 9.81981 4.08301 9.75036 4.33301L9.16703 6.66634H12.5004L13.1879 3.93717C13.2295 3.75662 13.3198 3.61079 13.4587 3.49967C13.5976 3.38856 13.7643 3.33301 13.9587 3.33301C14.2226 3.33301 14.4379 3.43717 14.6045 3.64551C14.7712 3.85384 14.8198 4.08301 14.7504 4.33301L14.167 6.66634H16.4379C16.7156 6.66634 16.9379 6.77384 17.1045 6.98884C17.2712 7.20384 17.3198 7.44356 17.2504 7.70801C17.2087 7.90245 17.1115 8.05523 16.9587 8.16634C16.8059 8.27745 16.6323 8.33301 16.4379 8.33301H13.7504L12.917 11.6663H15.1879C15.4656 11.6663 15.6879 11.7741 15.8545 11.9897C16.0212 12.2052 16.0698 12.4447 16.0004 12.708C15.9587 12.9025 15.8615 13.0552 15.7087 13.1663C15.5559 13.2775 15.3823 13.333 15.1879 13.333H12.5004L11.8129 16.0622C11.7712 16.2427 11.6809 16.3886 11.542 16.4997C11.4031 16.6108 11.2365 16.6663 11.042 16.6663C10.7781 16.6663 10.5629 16.5622 10.3962 16.3538C10.2295 16.1455 10.1809 15.9163 10.2504 15.6663L10.8337 13.333H7.50036ZM7.91703 11.6663H11.2504L12.0837 8.33301H8.75036L7.91703 11.6663Z" fill="#FAFDFF"/>
</svg>
